<svg width="59" height="65" viewBox="0 0 59 65" fill="none" xmlns="http://www.w3.org/2000/svg">
<path d="M48.1885 0C53.7588 0 58.2743 4.5156 58.2744 10.0859C58.2744 15.6564 53.7589 20.1729 48.1885 20.1729C45.6695 20.1728 43.3682 19.2466 41.6006 17.7197L20.165 29.9961C20.1673 30.0831 20.1728 30.1703 20.1729 30.2578C20.1729 32.0625 19.6955 33.7551 18.8652 35.2207L41.374 47.4785C43.1689 45.8327 45.5613 44.8282 48.1885 44.8281C53.7589 44.8281 58.2743 49.3437 58.2744 54.9141C58.2744 60.4845 53.7589 65 48.1885 65C42.6181 64.9999 38.1025 60.4845 38.1025 54.9141C38.1025 54.4043 38.1409 53.9035 38.2139 53.4141L13.2676 39.8281C12.2671 40.1605 11.198 40.3447 10.0859 40.3447C4.5156 40.3446 0 35.8282 0 30.2578C0.000145339 24.6876 4.51569 20.172 10.0859 20.1719C13.1301 20.1719 15.8567 21.5229 17.7061 23.6553L38.2646 11.8809C38.16 11.2983 38.1025 10.6986 38.1025 10.0859C38.1027 4.51567 42.6182 0.000110296 48.1885 0Z" fill="#5A6636"/>
</svg>
