<svg width="262" height="37" viewBox="0 0 262 37" fill="none" xmlns="http://www.w3.org/2000/svg">
<path d="M12.4733 36.9141C6.66565 36.9141 2.37587 34.4942 0 30.0944L5.6977 26.0906C7.25962 28.5985 9.5255 29.7424 12.5833 29.7424C15.9272 29.7424 18.171 28.3785 18.171 26.4866C18.171 23.8907 13.9253 21.8449 10.2075 19.997C6.22567 18.0171 1.8479 15.8392 1.8479 10.1855C1.8479 4.04779 7.03963 0 13.5513 0C18.391 0 22.3948 2.00189 24.0007 6.29167L18.743 9.96548C17.6871 7.85359 15.6412 6.99563 13.6613 6.99563C10.9994 6.99563 9.01953 8.53555 9.01953 10.3615C9.01953 12.4733 11.7034 13.1993 15.7732 15.1132C21.6469 17.8851 25.3427 20.8769 25.3427 26.3326C25.3427 32.8003 20.0629 36.9141 12.4733 36.9141Z" fill="#FCFCE4"/>
<path d="M40.0673 20.2534C40.0673 21.8085 38.8066 23.0692 37.2514 23.0692C35.6962 23.0692 34.4355 21.8085 34.4355 20.2534C34.4355 18.6982 35.6962 17.4375 37.2514 17.4375C38.8066 17.4375 40.0673 18.6982 40.0673 20.2534Z" fill="#FCFCE4"/>
<path d="M47.3711 36.2102V0.748047H59.8224C66.6861 0.748047 72.2958 6.13776 72.2958 12.7374C72.2958 19.3151 66.6861 24.6828 59.8224 24.6828H54.4987V36.2102H47.3711ZM59.8224 17.6432C62.7703 17.6652 65.1682 15.4213 65.1682 12.6714C65.1682 9.98756 62.7703 7.80967 59.8224 7.80967H54.4987V17.6212L59.8224 17.6432Z" fill="#FCFCE4"/>
<path d="M85.5897 20.2534C85.5897 21.8085 84.329 23.0692 82.7739 23.0692C81.2187 23.0692 79.958 21.8085 79.958 20.2534C79.958 18.6982 81.2187 17.4375 82.7739 17.4375C84.329 17.4375 85.5897 18.6982 85.5897 20.2534Z" fill="#FCFCE4"/>
<path d="M120.04 36.2102H111.329L100.043 19.4471V36.2102H92.9156L92.8936 0.748047H104.465C111.087 0.748047 116.52 5.85178 116.52 12.2314C116.52 16.7852 113.77 20.767 109.965 22.1089L120.04 36.2102ZM100.021 7.80967V16.7192L104.597 16.7412C107.017 16.7632 109.173 14.8053 109.173 12.2754C109.173 9.74557 106.995 7.80967 104.597 7.80967H100.021Z" fill="#FCFCE4"/>
<path d="M131.113 20.2534C131.113 21.8085 129.852 23.0692 128.297 23.0692C126.742 23.0692 125.481 21.8085 125.481 20.2534C125.481 18.6982 126.742 17.4375 128.297 17.4375C129.852 17.4375 131.113 18.6982 131.113 20.2534Z" fill="#FCFCE4"/>
<path d="M155.29 36.8925C145.171 36.8925 136.877 28.621 136.877 18.5235C136.877 8.33802 145.171 0.0224609 155.312 0.0224609C165.453 0.0224609 173.769 8.33802 173.769 18.5235C173.769 28.621 165.453 36.8925 155.29 36.8925ZM155.29 29.6769C161.494 29.6769 166.553 24.6392 166.553 18.4795C166.553 12.2758 161.494 7.21608 155.29 7.21608C149.108 7.21608 144.071 12.2758 144.071 18.4795C144.071 24.6392 149.108 29.6769 155.29 29.6769Z" fill="#FCFCE4"/>
<path d="M206.701 36.9801C199.155 36.9801 193.018 31.1284 193.018 23.0989V0.748047H200.189V23.0769C200.189 26.9487 203.247 29.7645 206.679 29.7645C210.111 29.7645 213.213 26.9267 213.213 23.0769V0.748047H220.384V23.0989C220.384 31.1284 214.246 36.9801 206.701 36.9801Z" fill="#FCFCE4"/>
<path d="M186.021 20.2534C186.021 21.8085 184.761 23.0692 183.206 23.0692C181.65 23.0692 180.39 21.8085 180.39 20.2534C180.39 18.6982 181.65 17.4375 183.206 17.4375C184.761 17.4375 186.021 18.6982 186.021 20.2534Z" fill="#FCFCE4"/>
<path d="M261.288 0.748047V7.80967H252.577V36.2102H245.427V7.80967H236.693V0.748047H261.288Z" fill="#FCFCE4"/>
<path d="M231.546 20.2534C231.546 21.8085 230.285 23.0692 228.73 23.0692C227.175 23.0692 225.914 21.8085 225.914 20.2534C225.914 18.6982 227.175 17.4375 228.73 17.4375C230.285 17.4375 231.546 18.6982 231.546 20.2534Z" fill="#FCFCE4"/>
</svg>
