<svg width="59" height="59" viewBox="0 0 59 59" fill="none" xmlns="http://www.w3.org/2000/svg">
<path d="M40.3445 29.1376C40.3445 35.327 35.327 40.3445 29.1376 40.3445C22.9482 40.3445 17.9307 35.327 17.9307 29.1376C17.9307 22.9482 22.9482 17.9307 29.1376 17.9307C35.327 17.9307 40.3445 22.9482 40.3445 29.1376Z" fill="#5A6636"/>
<path d="M44.8276 0C52.2549 0 58.2759 6.021 58.2759 13.4483V44.8276C58.2759 52.2549 52.2549 58.2759 44.8276 58.2759H13.4483C6.021 58.2759 3.61017e-08 52.2549 0 44.8276V13.4483C0 6.021 6.021 3.61006e-08 13.4483 0H44.8276ZM29.1379 13.4483C20.4728 13.4483 13.4483 20.4728 13.4483 29.1379C13.4483 37.8031 20.4728 44.8276 29.1379 44.8276C37.8031 44.8276 44.8276 37.8031 44.8276 29.1379C44.8276 20.4728 37.8031 13.4483 29.1379 13.4483ZM48.1897 6.72414C46.3328 6.72414 44.8276 8.22939 44.8276 10.0862C44.8276 11.943 46.3328 13.4483 48.1897 13.4483C50.0465 13.4483 51.5517 11.943 51.5517 10.0862C51.5517 8.22939 50.0465 6.72414 48.1897 6.72414Z" fill="#5A6636"/>
</svg>
